
<svg width="405px" height="676px" viewBox="0 0 405 676" version="1.1" xmlns="http://www.w3.org/2000/svg" xmlns:xlink="http://www.w3.org/1999/xlink">
    <style type="text/css">
        .text {
        font-size: 3em;
      }
    </style>
    <g id="Page-1" stroke="none" stroke-width="1" fill="none" fill-rule="evenodd">
        <g id="plant-svgrepo-com" transform="translate(0.661000, 0.000000)">
            <path d="M351.65,257.53 C339.646,253.603 327.116,251.612 314.408,251.612 C285.901,251.612 259.695,261.634 239.112,278.331 C247.453,237.366 272.985,203.71 307.802,190.314 C311.74,188.798 314.339,185.015 314.339,180.795 C314.339,176.575 311.74,172.791 307.802,171.276 C295.253,166.448 282.145,164 268.842,164 C233.668,164 201.876,181.151 179.339,208.632 C156.802,181.151 125.01,164 89.836,164 C76.533,164 63.424,166.448 50.876,171.275 C46.938,172.79 44.339,176.574 44.339,180.794 C44.339,185.013 46.938,188.798 50.876,190.313 C85.693,203.709 111.224,237.365 119.566,278.33 C98.984,261.633 72.777,251.611 44.27,251.611 C31.563,251.611 19.032,253.602 7.028,257.529 C2.835,258.901 -2.84217094e-14,262.812 -2.84217094e-14,267.222 C-2.84217094e-14,271.633 2.836,275.545 7.028,276.915 C47.949,290.3 75.443,328.239 75.443,371.324 C75.443,378.148 74.742,384.921 73.372,391.546 L43.744,391.546 C38.111,391.546 33.545,396.112 33.545,401.745 L33.545,456.8 C33.545,462.433 38.111,466.999 43.744,466.999 L59.469,466.999 L78.961,666.79 C79.471,672.014 83.863,675.999 89.112,675.999 L269.566,675.999 C274.816,675.999 279.207,672.014 279.717,666.79 L299.209,466.999 L314.934,466.999 C320.567,466.999 325.133,462.433 325.133,456.8 L325.133,401.746 C325.133,396.113 320.567,391.547 314.934,391.547 L285.306,391.547 C283.935,384.922 283.235,378.149 283.235,371.325 C283.235,328.241 310.729,290.301 351.65,276.916 C355.842,275.545 358.678,271.634 358.678,267.223 C358.678,262.813 355.842,258.902 351.65,257.53 Z M179.339,246.244 C182.833,239.015 186.929,232.252 191.536,226.04 C210.468,200.518 238.106,184.398 268.842,184.398 C271.048,184.398 273.246,184.482 275.437,184.647 C239.918,209.526 217.065,253.954 215.841,303.467 C215.036,304.633 214.247,305.809 213.483,307.003 C204.39,321.221 198.224,337.478 195.823,354.921 C195.085,360.286 194.694,365.761 194.694,371.325 C194.694,378.127 195.276,384.889 196.412,391.547 L167.595,391.547 L165.587999,307.651 C165.586,285.308 170.594,264.335 179.339,246.244 Z M83.241,184.647 C85.432,184.481 87.631,184.398 89.836,184.398 C120.572,184.398 148.21,200.518 167.142,226.04 C153.408,249.068 145.311,276.959 145.195,307.003 C144.431,305.809 143.642,304.632 142.837,303.467 C141.613,253.954 118.76,209.526 83.241,184.647 Z M43.086,272.018 C43.481,272.014 43.875,272.011 44.271,272.011 C75.98,272.011 104.265,286.95 122.461,310.157 C132.484,322.941 139.439,338.234 142.224,354.922 C143.115,360.26 143.587,365.739 143.587,371.326 C143.587,378.148 142.894,384.923 141.525,391.548 L94.137,391.548 C95.271,384.891 95.843,378.128 95.843,371.326 C95.842,330.693 75.546,293.851 43.086,272.018 Z M260.314,655.602 L98.364,655.602 L79.964,467.001 L278.713,467.001 L260.314,655.602 Z M304.735,411.947 L304.735,446.603 L289.956,446.603 L68.722,446.603 L53.943,446.603 L53.943,411.947 L81.357,411.947 L277.32,411.947 L304.735,411.947 Z M262.836,371.326 C262.836,378.128 263.408,384.89 264.542,391.548 L217.154,391.548 C215.784,384.923 215.092,378.149 215.092,371.326 C215.092,366.012 215.516,360.796 216.324,355.707 C219.017,338.733 226.022,323.177 236.183,310.202 C254.377,286.968 282.678,272.01 314.408,272.01 C314.804,272.01 315.197,272.012 315.593,272.017 C283.132,293.851 262.836,330.693 262.836,371.326 Z" id="Shape" fill="#000000" fill-rule="nonzero"></path>
            <polygon ng-show="soilhumid > 80" id="level3" fill-opacity="0.61" fill="#1E79C5" points="80.9569059 475 277.33298 475.181258 272.04217 524.823625 86.2477166 524.995117"></polygon>
            <polygon ng-show="soilhumid > 40" id="level2" fill-opacity="0.61" fill="#1E79C5" points="86.9569059 538 271.956906 538.181276 266.972592 587.828492 91.9412197 588"></polygon>
            <polygon ng-show="soilhumid > 20" id="level1" fill-opacity="0.61" fill="#1E79C5" points="92.9569059 602 265.956906 602.181276 261.295899 651.828492 97.6179129 652"></polygon>
            <circle id="Oval" fill-opacity="0.65" fill="#F4DA44" cx="346.5" cy="41.5" r="41.5"></circle>
            <g id="Group" transform="translate(79.339000, 19.000000)" fill="#000000" fill-rule="nonzero" font-family="Helvetica" font-size="36" font-weight="normal">
                <text id="{{light}}">
                    <tspan x="250" y="35">{{light}}</tspan>
                </text>
                <text id="{{soilhumid}}">
                    <tspan x="85" y="553.04946">{{soilhumid}}</tspan>
                </text>
            </g>
        </g>
    </g>
</svg>